<svg id="Layer_1" data-name="Layer 1" xmlns="http://www.w3.org/2000/svg" viewBox="0 0 1080 1080" width="1080" height="1080"><defs><style>.cls-1{fill:#0297b1;}.cls-2{fill:#fff;}</style></defs><rect class="cls-1" width="1080" height="1080" rx="100"/><path class="cls-2" d="M600.25,601.27a77.67,77.67,0,0,1-110.68,0,80.23,80.23,0,0,1,0-112.55,77.72,77.72,0,0,1,110.75,0,37.6,37.6,0,0,0,53.38-53,152.94,152.94,0,0,0-217.45,0c-59.68,60.2-59.68,158.17,0,218.4A152,152,0,0,0,545,699.58h0a152.06,152.06,0,0,0,108.73-45.4,37.6,37.6,0,0,0-53.45-52.91Z"/><path class="cls-2" d="M496,135.48l-26.19,96.89a320.92,320.92,0,0,0-76.81,28l-82.37-57.4-67.44,56.6,42.21,91a320.44,320.44,0,0,0-40.84,70.82l-100,9L129.23,517.1l91,42.67a320.46,320.46,0,0,0,13.9,80.62l-70.64,71,44,76.24,97.16-25.82a320.28,320.28,0,0,0,62.46,52.91l-8.5,99.69,82.73,30.13,57.84-82.22a320.38,320.38,0,0,0,40.82,3,322.1,322.1,0,0,0,40.81-2.93l57.8,82.14,82.74-30.13-8.53-100.06a320.46,320.46,0,0,0,62.59-52.5l97.06,25.78,44-76.24-70.87-71.2A320.82,320.82,0,0,0,860,559.66l90.79-42.56-15.29-86.71-99.77-9a320.54,320.54,0,0,0-41.14-70.67l42.26-91.19L769.37,203l-82.18,57.27a320.53,320.53,0,0,0-77-27.7l-26.23-97H496ZM540,282.94c144.62,0,261.87,117.25,261.87,261.88S684.63,806.68,540,806.69,278.12,689.46,278.11,544.83h0c0-144.63,117.25-261.88,261.88-261.88Z"/></svg>